<?xml version="1.0" encoding="UTF-8"?>
<svg id="Layer_1" data-name="Layer 1" xmlns="http://www.w3.org/2000/svg" viewBox="0 0 160 160">
  <defs>
    <style>
      .cls-1 {
        fill: #95b272;
      }

      .cls-2 {
        fill: #36543d;
      }
    </style>
  </defs>
  <path class="cls-1" d="M81.13,82.98c-11.68-2.7-22.49-13.11-23.35-25.49-1.12-16.02,15.21-30.05,30.51-22.63,6.96,3.38,10.74,13.99,3.7,19.48-3.82,2.98-9.37,1.5-10.03-3.57-.19-1.48.62-3.24-1.54-3.35-3.25-.16-6.53,3.14-6.96,6.26-.36,2.67.24,4.73,1.57,7.01.24.41.33.63.52.96,1.28,2.29,5.77,4.69,8.26,5.34,8.02,2.09,16.45-2.08,20.55-9.01,5.86-9.93,2.27-23.07-6.48-30.03-10.45-8.31-24.56-7.86-35.33-.62-15.23,10.23-20.17,27.89-13.19,44.88,1.12,2.73,4.17,6.83-.68,8.07-1.88.48-2.53.15-4.36,1.13-.89.48-1.39.23-1.69,1.55-.28,1.22.13,2.6,1.03,3.47,2.51,2.42,12.34,2.23,16.04,2.64,2.94.33,9.76,1.12,9.66,5.18s-7.71,6.52-8.91,9.79c-.61,1.66.09,3.37,1.64,4.16,4.48,2.27,9.9-1.09,14.16-2.17,3.24-.82,6.8.57,7.96,3.82.43,1.2.43,1.91,0,3.13-.38,1.08-1.72,2.74-2.48,3.61-2.56,2.94-6.71,5.3-5.8,9.86.18.91.88,2.09,1.64,2.63,1.71,1.2,2.44.8,4.23,1.22.16.04.13.39.26.41.21.03,3.58-.62,4.13-.73.58-.11.83-.25.97-.28,3.78-.83,8.01-2.19,11.76-.46,1.83.85,3.66,2.98,3.9,5.03.65,5.67-8.22,12.28-10.29,17.49-.47,1.19-.75,2.47-1.06,3.71-5.24.03-11.08.68-16.34.2-4.75-.43-4.65-4.45-6.04-7.97-5.21-13.23-20.19-25.44-28.39-37.61-19.67-29.23-22.08-74.77,9.28-96.93,28.31-20.01,72.03-5.47,74.18,31.14,1.36,23.15-19.59,44.1-43.05,38.68Z"/>
  <path class="cls-2" d="M91.49,155.48c.32-1.24.59-2.51,1.06-3.71,2.06-5.21,10.94-11.82,10.29-17.49-.24-2.05-2.07-4.19-3.9-5.03-3.75-1.74-7.98-.37-11.76.46-.14.03-.39.17-.97.28s-3.93.76-4.13.73c-.14-.02-.11-.38-.26-.41-1.79-.42-2.52-.02-4.23-1.22-.76-.54-1.46-1.72-1.64-2.63-.91-4.56,3.24-6.92,5.8-9.86.76-.87,2.1-2.53,2.48-3.61.43-1.22.42-1.92,0-3.13-1.16-3.25-4.72-4.64-7.96-3.82-4.26,1.08-9.67,4.44-14.16,2.17-1.56-.79-2.25-2.5-1.64-4.16,1.2-3.27,8.81-5.71,8.91-9.79s-6.72-4.85-9.66-5.18c-3.7-.41-13.53-.23-16.04-2.64-.9-.86-1.31-2.25-1.03-3.47.3-1.32.8-1.07,1.69-1.55,1.83-.99,2.48-.65,4.36-1.13,4.85-1.24,1.8-5.34.68-8.07-6.99-16.99-2.04-34.65,13.19-44.88,10.78-7.24,24.88-7.69,35.33.62,8.75,6.96,12.34,20.09,6.48,30.03-4.09,6.94-12.53,11.1-20.55,9.01-2.49-.65-6.98-3.05-8.26-5.34-.18-.32-.27-.54-.52-.96-1.32-2.28-1.93-4.33-1.57-7.01.42-3.12,3.7-6.42,6.96-6.26,2.15.11,1.34,1.87,1.54,3.35.66,5.07,6.21,6.54,10.03,3.57,7.04-5.49,3.26-16.1-3.7-19.48-15.29-7.42-31.62,6.61-30.51,22.63.86,12.38,11.67,22.79,23.35,25.49-.11.49.25.42.53.57,22.76,12.22,43.2,36.22,49.61,61.48,1.01,3.96,2.5,8.69-2.53,10.43-12.42.08-24.84-.06-37.25.01Z"/>
</svg>